<svg id="Capa_1" enable-background="new 0 0 512 512" height="512" viewBox="0 0 512 512" width="512" xmlns="http://www.w3.org/2000/svg"><g><g><path d="m447.557 309.384-432.317 14.907c-4.317.149-7.74 3.692-7.74 8.012v32.608c0 4.32 3.423 7.862 7.74 8.011l432.318 14.907c13.599.469 24.877-10.427 24.877-24.034v-30.377c0-13.607-11.279-24.503-24.878-24.034z" fill="#e2a975"/><path d="m447.558 387.829c13.598.469 24.877-10.427 24.877-24.034v-.557l-1.017-.035-424.39-14.634c-8.634-.298-15.48-7.383-15.48-16.023v-8.541-.276l-16.308.562c-4.317.149-7.74 3.692-7.74 8.012v32.607c0 4.32 3.423 7.863 7.74 8.012z" fill="#d19a6e"/><path d="m447.557 309.384-15.203.525v77.396l15.203.525c13.599.469 24.877-10.427 24.877-24.034v-30.377c.001-13.608-11.278-24.504-24.877-24.035z" fill="#ffc269"/></g><g><path d="m447.299 301.888-118.115 4.073c-4.14.143-7.38 3.614-7.237 7.754.059 1.717.696 3.273 1.71 4.502l-.006.005 48.976 59.519-139-4.793-106.574-45.015 167.155-5.774c4.14-.143 7.38-3.615 7.237-7.754-.143-4.14-3.654-7.384-7.754-7.237l-278.711 9.628c-8.399.29-14.98 7.101-14.98 15.507v32.607c0 8.406 6.581 15.217 14.981 15.507l432.317 14.907c.375.013.749.02 1.123.02 8.211 0 15.946-3.123 21.885-8.859 6.209-5.999 9.628-14.057 9.628-22.69v-30.377c0-8.633-3.419-16.691-9.628-22.689-6.208-5.998-14.39-9.13-23.007-8.841zm-102.406 18.541 79.961-2.757v61.871l-32.233-1.112zm-329.893 44.481v-32.607c0-.28.219-.506.499-.516l75.918-2.623 100.231 42.336-176.15-6.074c-.279-.009-.498-.236-.498-.516zm449.935-1.115c0 4.528-1.793 8.755-5.051 11.902-3.256 3.146-7.541 4.788-12.068 4.637l-7.962-.275v-62.905l7.962-.275c4.525-.165 8.811 1.49 12.068 4.637 3.257 3.146 5.05 7.373 5.05 11.901v30.378z"/><path d="m202.364 177.32c23.402 23.402 52.538 40.769 84.258 50.222.715.213 1.436.314 2.145.314 3.231 0 6.215-2.105 7.185-5.36 1.183-3.97-1.076-8.146-5.045-9.33-29.34-8.744-56.29-24.807-77.936-46.453l-47.861-47.861c-2.929-2.929-7.678-2.929-10.606 0-2.929 2.929-2.929 7.678 0 10.606z"/><path d="m432.354 220.865h-88.649c-7.547 0-15.171-.469-22.658-1.393-4.117-.505-7.855 2.414-8.362 6.524-.507 4.111 2.414 7.855 6.524 8.362 8.095.999 16.337 1.506 24.496 1.506h88.649c35.646 0 64.645 29 64.645 64.645v48.097c0 4.142 3.358 7.5 7.5 7.5s7.5-3.358 7.5-7.5v-48.096c0-43.917-35.728-79.645-79.645-79.645z"/><path d="m189.596 199.334c-2.745 3.102-2.455 7.842.648 10.586 42.285 37.408 96.784 58.009 153.459 58.009h88.651c7.111 0 13.871 2.26 19.55 6.537 1.352 1.018 2.935 1.509 4.506 1.509 2.275 0 4.523-1.031 5.997-2.989 2.492-3.309 1.83-8.011-1.479-10.503-8.3-6.25-18.181-9.555-28.573-9.555h-88.651c-53.011 0-103.98-19.264-143.521-54.244-3.104-2.744-7.844-2.453-10.587.65z"/><path d="m291.013 195.401c16.919 5.574 34.646 8.4 52.69 8.4h88.651c25.057 0 48.834 9.585 66.95 26.989 1.454 1.397 3.326 2.091 5.195 2.091 1.97 0 3.937-.771 5.41-2.304 2.87-2.987 2.774-7.735-.213-10.604-20.924-20.101-48.391-31.171-77.342-31.171h-88.651c-16.446 0-32.595-2.573-47.997-7.647-3.933-1.292-8.174.842-9.47 4.777-1.296 3.932.843 8.172 4.777 9.469z"/></g></g></svg>