<svg xmlns="http://www.w3.org/2000/svg" viewBox="0 0 512 512">
  <path fill="#ba6b24" d="M150.92 45.83h210.17v377.04H150.92z"/>
  <g fill="#a55c20">
    <path d="M150.92 39.13h210.17v18.93H150.92zM150.92 406.47h210.17v25.76H150.92z"/>
  </g>
  <path d="M394.83 0v23.26a22.57 22.57 0 00-22.57 22.57H139.74a22.57 22.57 0 00-22.57-22.57V0h277.66z" fill="#ba6b24"/>
  <path d="M394.83 23.26a22.57 22.57 0 00-22.57 22.57H139.74a22.57 22.57 0 00-22.57-22.57h277.66z" fill="#a55c20"/>
  <path d="M383.7 469.52a13.68 13.68 0 01-13.67-13.68v-34.09H141.97v34.1c0 7.55-6.12 13.67-13.68 13.67L117.11 512h70.96a42.48 42.48 0 0142.48-42.48h50.9A42.48 42.48 0 01323.91 512h70.97l-11.18-42.48z" fill="#ba6b24"/>
  <path fill="#3c545e" d="M177.19 72.97h157.62v312.41H177.19z"/>
  <g fill="#fcd577">
    <path d="M263.84 216.87l-2.8 24.6-.41 3.54a12.14 12.14 0 01-13.44 10.68l-3.48-.4-3.5-.4a12.14 12.14 0 01-10.68-13.42l2.8-24.6h31.5zM184.45 79.37h143.09v137.5H184.45z"/>
  </g>
  <path fill="#eac36e" d="M263.84 216.87l-2.8 24.6h-31.5l2.8-24.6z"/>
  <circle cx="256" cy="147.56" r="50.69" fill="#cfdce5"/>
  <g fill="#7190a5">
    <path d="M256 203.83c-31.03 0-56.27-25.24-56.27-56.27S224.97 91.3 256 91.3s56.27 25.24 56.27 56.27-25.24 56.27-56.27 56.27zm0-101.36c-24.87 0-45.1 20.23-45.1 45.1s20.23 45.08 45.1 45.08 45.1-20.22 45.1-45.09-20.24-45.09-45.1-45.09z"/>
    <path d="M250.41 147.56l5.59-32.42 5.59 32.42a5.67 5.67 0 11-11.18 0z"/>
  </g>
  <g fill="#fcd577">
    <path d="M245.63 312.34l-16.66-1.9 7.35-64.4 16.66 1.9z"/>
    <circle cx="235.4" cy="328.05" r="25.15"/>
  </g>
  <circle cx="235.4" cy="328.05" r="14.12" fill="#eac36e"/>
  <g fill="#a55c20">
    <path d="M327.55 79.37v299.6h-143.1V79.37h143.1m13.41-13.41H171.04V392.38h169.92V65.96z"/>
    <path d="M177.19 209.61h157.62v14.53H177.19z"/>
  </g>
</svg>
